<svg width="262" height="262" viewBox="0 0 262 262" fill="none" xmlns="http://www.w3.org/2000/svg">
<path fill-rule="evenodd" clip-rule="evenodd" d="M40 136V71C40 59.9543 48.9543 51 60 51H81V37.5C81 32.2533 85.2533 28 90.5 28C95.7467 28 100 32.2533 100 37.5V61.5C100 66.7467 95.7467 71 90.5 71C89.2001 71 87.9614 70.7382 86.833 70.2656C88.5481 71.9559 90.9017 73 93.5 73C98.7467 73 103 68.7467 103 63.5V51H120V37.5C120 32.2533 124.253 28 129.5 28C134.747 28 139 32.2533 139 37.5V61.5C139 66.7467 134.747 71 129.5 71C128.2 71 126.961 70.7382 125.833 70.2656C127.548 71.9559 129.902 73 132.5 73C137.747 73 142 68.7467 142 63.5V51H159V37.5C159 32.2533 163.253 28 168.5 28C173.747 28 178 32.2533 178 37.5V61.5C178 66.7467 173.747 71 168.5 71C167.2 71 165.961 70.7382 164.833 70.2656C166.548 71.9559 168.902 73 171.5 73C176.747 73 181 68.7467 181 63.5V51H202C213.046 51 222 59.9543 222 71V114C222 116.761 219.761 119 217 119H181C178.239 119 176 116.761 176 114V102C176 99.2386 173.761 97 171 97H91C88.2386 97 86 99.2386 86 102V136H40Z" fill="#23B3ED"/>
<path fill-rule="evenodd" clip-rule="evenodd" d="M40 136V71C40 59.9543 48.9543 51 60 51H81V37.5C81 32.2533 85.2533 28 90.5 28C95.7467 28 100 32.2533 100 37.5V61.5C100 66.7467 95.7467 71 90.5 71C89.2001 71 87.9614 70.7382 86.833 70.2656C88.5481 71.9559 90.9017 73 93.5 73C98.7467 73 103 68.7467 103 63.5V51H120V37.5C120 32.2533 124.253 28 129.5 28C134.747 28 139 32.2533 139 37.5V61.5C139 66.7467 134.747 71 129.5 71C128.2 71 126.961 70.7382 125.833 70.2656C127.548 71.9559 129.902 73 132.5 73C137.747 73 142 68.7467 142 63.5V51H159V37.5C159 32.2533 163.253 28 168.5 28C173.747 28 178 32.2533 178 37.5V61.5C178 66.7467 173.747 71 168.5 71C167.2 71 165.961 70.7382 164.833 70.2656C166.548 71.9559 168.902 73 171.5 73C176.747 73 181 68.7467 181 63.5V51H202C213.046 51 222 59.9543 222 71V114C222 116.761 219.761 119 217 119H181C178.239 119 176 116.761 176 114V102C176 99.2386 173.761 97 171 97H91C88.2386 97 86 99.2386 86 102V136H40Z" fill="url(#paint0_linear_10_161)" fill-opacity="0.1"/>
<path d="M202 233H137V187H171C173.761 187 176 184.761 176 182V170C176 167.239 178.239 165 181 165H217C219.761 165 222 167.239 222 170V213C222 224.046 213.046 233 202 233Z" fill="#23B3ED"/>
<path d="M202 233H137V187H171C173.761 187 176 184.761 176 182V170C176 167.239 178.239 165 181 165H217C219.761 165 222 167.239 222 170V213C222 224.046 213.046 233 202 233Z" fill="url(#paint1_linear_10_161)" fill-opacity="0.1"/>
<rect width="97" height="40" transform="matrix(1 0 0 -1 81 68)" fill="url(#paint2_linear_10_161)" fill-opacity="0.1"/>
<path d="M40 136H119C128.941 136 137 144.059 137 154V233L40 136Z" fill="#2566EB"/>
<path d="M40 136H119C128.941 136 137 144.059 137 154V233L40 136Z" fill="url(#paint3_linear_10_161)" fill-opacity="0.2"/>
<path d="M141.794 182.044C141.251 182.044 140.855 181.971 140.606 181.824C140.357 181.677 140.232 181.472 140.232 181.208V167.392C140.232 167.128 140.357 166.923 140.606 166.776C140.855 166.629 141.251 166.556 141.794 166.556H142.454C142.997 166.556 143.393 166.629 143.642 166.776C143.891 166.923 144.016 167.128 144.016 167.392V181.208C144.016 181.472 143.891 181.677 143.642 181.824C143.393 181.971 142.997 182.044 142.454 182.044H141.794ZM148.046 182.044C147.504 182.044 147.108 181.971 146.858 181.824C146.609 181.677 146.484 181.472 146.484 181.208V167.392C146.484 167.113 146.609 166.908 146.858 166.776C147.108 166.629 147.504 166.556 148.046 166.556H148.662C149 166.556 149.271 166.578 149.476 166.622C149.696 166.666 149.887 166.747 150.048 166.864C150.21 166.967 150.371 167.143 150.532 167.392L155.042 173.816C155.292 174.153 155.534 174.527 155.768 174.938C156.003 175.334 156.186 175.664 156.318 175.928L156.406 175.906C156.362 175.627 156.326 175.283 156.296 174.872C156.282 174.461 156.274 174.058 156.274 173.662V167.392C156.274 167.128 156.399 166.923 156.648 166.776C156.898 166.629 157.294 166.556 157.836 166.556H158.232C158.79 166.556 159.186 166.629 159.42 166.776C159.67 166.923 159.794 167.128 159.794 167.392V181.208C159.794 181.472 159.67 181.677 159.42 181.824C159.186 181.971 158.79 182.044 158.232 182.044H157.616C157.308 182.044 157.044 182.029 156.824 182C156.619 181.956 156.436 181.883 156.274 181.78C156.128 181.663 155.981 181.494 155.834 181.274L151.236 174.762C150.987 174.395 150.745 174.014 150.51 173.618C150.276 173.222 150.092 172.892 149.96 172.628L149.872 172.65C149.916 172.929 149.946 173.273 149.96 173.684C149.99 174.095 150.004 174.505 150.004 174.916V181.208C150.004 181.472 149.88 181.677 149.63 181.824C149.396 181.971 149 182.044 148.442 182.044H148.046ZM166.763 182.044C166.22 182.044 165.824 181.971 165.575 181.824C165.326 181.677 165.201 181.472 165.201 181.208V169.966H161.989C161.476 169.966 161.219 169.555 161.219 168.734V167.81C161.219 167.003 161.476 166.6 161.989 166.6H172.175C172.688 166.6 172.945 167.003 172.945 167.81V168.734C172.945 169.555 172.688 169.966 172.175 169.966H168.963V181.208C168.963 181.472 168.838 181.677 168.589 181.824C168.354 181.971 167.958 182.044 167.401 182.044H166.763Z" fill="#2566EB"/>
<rect x="81" y="28" width="19" height="43" rx="9.5" fill="#23B3ED"/>
<rect x="81" y="28" width="19" height="43" rx="9.5" fill="url(#paint4_linear_10_161)" fill-opacity="0.1"/>
<rect x="120" y="28" width="19" height="43" rx="9.5" fill="#23B3ED"/>
<rect x="120" y="28" width="19" height="43" rx="9.5" fill="url(#paint5_linear_10_161)" fill-opacity="0.1"/>
<rect x="159" y="28" width="19" height="43" rx="9.5" fill="#23B3ED"/>
<rect x="159" y="28" width="19" height="43" rx="9.5" fill="url(#paint6_linear_10_161)" fill-opacity="0.1"/>
<defs>
<linearGradient id="paint0_linear_10_161" x1="69" y1="107" x2="69" y2="136" gradientUnits="userSpaceOnUse">
<stop stop-opacity="0"/>
<stop offset="1"/>
</linearGradient>
<linearGradient id="paint1_linear_10_161" x1="175.5" y1="199" x2="137" y2="199" gradientUnits="userSpaceOnUse">
<stop stop-opacity="0"/>
<stop offset="1"/>
</linearGradient>
<linearGradient id="paint2_linear_10_161" x1="48.5" y1="0" x2="48.5" y2="40" gradientUnits="userSpaceOnUse">
<stop stop-opacity="0"/>
<stop offset="1"/>
</linearGradient>
<linearGradient id="paint3_linear_10_161" x1="121.5" y1="152.5" x2="89" y2="185" gradientUnits="userSpaceOnUse">
<stop stop-opacity="0"/>
<stop offset="1"/>
</linearGradient>
<linearGradient id="paint4_linear_10_161" x1="90.5" y1="28" x2="90.5" y2="71" gradientUnits="userSpaceOnUse">
<stop/>
<stop offset="1" stop-opacity="0"/>
</linearGradient>
<linearGradient id="paint5_linear_10_161" x1="129.5" y1="28" x2="129.5" y2="71" gradientUnits="userSpaceOnUse">
<stop/>
<stop offset="1" stop-opacity="0"/>
</linearGradient>
<linearGradient id="paint6_linear_10_161" x1="168.5" y1="28" x2="168.5" y2="71" gradientUnits="userSpaceOnUse">
<stop/>
<stop offset="1" stop-opacity="0"/>
</linearGradient>
</defs>
</svg>
