<svg width="1047" height="262" viewBox="0 0 1047 262" fill="none" xmlns="http://www.w3.org/2000/svg">
<g clip-path="url(#clip0_15_2)">
<path fill-rule="evenodd" clip-rule="evenodd" d="M43 133V68C43 56.9543 51.9543 48 63 48H84V34.5C84 29.2533 88.2533 25 93.5 25C98.7467 25 103 29.2533 103 34.5V58.5C103 63.7467 98.7467 68 93.5 68C92.2001 68 90.9614 67.7382 89.833 67.2656C91.5481 68.9559 93.9017 70 96.5 70C101.747 70 106 65.7467 106 60.5V48H123V34.5C123 29.2533 127.253 25 132.5 25C137.747 25 142 29.2533 142 34.5V58.5C142 63.7467 137.747 68 132.5 68C131.2 68 129.961 67.7382 128.833 67.2656C130.548 68.9559 132.902 70 135.5 70C140.747 70 145 65.7467 145 60.5V48H162V34.5C162 29.2533 166.253 25 171.5 25C176.747 25 181 29.2533 181 34.5V58.5C181 63.7467 176.747 68 171.5 68C170.2 68 168.961 67.7382 167.833 67.2656C169.548 68.9559 171.902 70 174.5 70C179.747 70 184 65.7467 184 60.5V48H205C216.046 48 225 56.9543 225 68V111C225 113.761 222.761 116 220 116H184C181.239 116 179 113.761 179 111V99C179 96.2386 176.761 94 174 94H94C91.2386 94 89 96.2386 89 99V133H43Z" fill="#23B3ED"/>
<path fill-rule="evenodd" clip-rule="evenodd" d="M43 133V68C43 56.9543 51.9543 48 63 48H84V34.5C84 29.2533 88.2533 25 93.5 25C98.7467 25 103 29.2533 103 34.5V58.5C103 63.7467 98.7467 68 93.5 68C92.2001 68 90.9614 67.7382 89.833 67.2656C91.5481 68.9559 93.9017 70 96.5 70C101.747 70 106 65.7467 106 60.5V48H123V34.5C123 29.2533 127.253 25 132.5 25C137.747 25 142 29.2533 142 34.5V58.5C142 63.7467 137.747 68 132.5 68C131.2 68 129.961 67.7382 128.833 67.2656C130.548 68.9559 132.902 70 135.5 70C140.747 70 145 65.7467 145 60.5V48H162V34.5C162 29.2533 166.253 25 171.5 25C176.747 25 181 29.2533 181 34.5V58.5C181 63.7467 176.747 68 171.5 68C170.2 68 168.961 67.7382 167.833 67.2656C169.548 68.9559 171.902 70 174.5 70C179.747 70 184 65.7467 184 60.5V48H205C216.046 48 225 56.9543 225 68V111C225 113.761 222.761 116 220 116H184C181.239 116 179 113.761 179 111V99C179 96.2386 176.761 94 174 94H94C91.2386 94 89 96.2386 89 99V133H43Z" fill="url(#paint0_linear_15_2)" fill-opacity="0.1"/>
<path d="M205 230H140V184H174C176.761 184 179 181.761 179 179V167C179 164.239 181.239 162 184 162H220C222.761 162 225 164.239 225 167V210C225 221.046 216.046 230 205 230Z" fill="#23B3ED"/>
<path d="M205 230H140V184H174C176.761 184 179 181.761 179 179V167C179 164.239 181.239 162 184 162H220C222.761 162 225 164.239 225 167V210C225 221.046 216.046 230 205 230Z" fill="url(#paint1_linear_15_2)" fill-opacity="0.1"/>
<path d="M43 133H122C131.941 133 140 141.059 140 151V230L43 133Z" fill="#2566EB"/>
<path d="M43 133H122C131.941 133 140 141.059 140 151V230L43 133Z" fill="url(#paint2_linear_15_2)" fill-opacity="0.2"/>
<rect x="84" y="25" width="19" height="43" rx="9.5" fill="#23B3ED"/>
<rect x="84" y="25" width="19" height="43" rx="9.5" fill="url(#paint3_linear_15_2)" fill-opacity="0.1"/>
<rect x="123" y="25" width="19" height="43" rx="9.5" fill="#23B3ED"/>
<rect x="123" y="25" width="19" height="43" rx="9.5" fill="url(#paint4_linear_15_2)" fill-opacity="0.1"/>
<rect x="162" y="25" width="19" height="43" rx="9.5" fill="#23B3ED"/>
<rect x="162" y="25" width="19" height="43" rx="9.5" fill="url(#paint5_linear_15_2)" fill-opacity="0.1"/>
<path d="M276.686 230.08C267.926 230.08 260.606 227.92 254.726 223.6C248.846 219.16 245.906 212.32 245.906 203.08C245.906 196.96 246.926 191.8 248.966 187.6C251.006 183.4 254.306 180.04 258.866 177.52C263.546 175 269.666 173.2 277.226 172.12C284.906 170.92 294.266 170.32 305.306 170.32V161.86C305.306 159.1 304.706 156.58 303.506 154.3C302.306 152.02 300.266 150.22 297.386 148.9C294.626 147.46 290.786 146.74 285.866 146.74C280.466 146.74 275.666 147.34 271.466 148.54C267.386 149.74 264.026 150.94 261.386 152.14C258.866 153.34 257.186 153.94 256.346 153.94C255.746 153.94 255.146 153.64 254.546 153.04C254.066 152.44 253.586 151.66 253.106 150.7C252.626 149.62 252.206 148.54 251.846 147.46C251.606 146.38 251.486 145.42 251.486 144.58C251.486 143.62 252.506 142.54 254.546 141.34C256.586 140.14 259.286 139 262.646 137.92C266.126 136.72 269.906 135.76 273.986 135.04C278.186 134.2 282.386 133.78 286.586 133.78C291.986 133.78 296.786 134.44 300.986 135.76C305.306 136.96 308.906 138.82 311.786 141.34C314.666 143.74 316.886 146.68 318.446 150.16C320.006 153.64 320.786 157.6 320.786 162.04V202C320.786 206.92 320.906 210.94 321.146 214.06C321.506 217.18 321.806 219.64 322.046 221.44C322.406 223.12 322.586 224.38 322.586 225.22C322.586 225.82 322.226 226.36 321.506 226.84C320.786 227.32 319.886 227.74 318.806 228.1C317.726 228.34 316.586 228.58 315.386 228.82C314.186 228.94 313.106 229 312.146 229C311.066 229 310.226 228.64 309.626 227.92C309.026 227.08 308.486 225.76 308.006 223.96C307.526 222.04 306.986 219.58 306.386 216.58C304.226 219.1 301.646 221.38 298.646 223.42C295.766 225.46 292.466 227.08 288.746 228.28C285.146 229.48 281.126 230.08 276.686 230.08ZM277.406 216.94C281.726 216.94 285.506 216.34 288.746 215.14C292.106 213.94 295.106 212.44 297.746 210.64C300.506 208.72 303.026 206.68 305.306 204.52V183.28C296.426 183.28 289.166 183.64 283.526 184.36C277.886 184.96 273.506 185.98 270.386 187.42C267.266 188.86 265.106 190.84 263.906 193.36C262.706 195.76 262.106 198.7 262.106 202.18C262.106 206.98 263.366 210.64 265.886 213.16C268.526 215.68 272.366 216.94 277.406 216.94ZM371.532 230.08C366.732 230.08 362.712 229.18 359.472 227.38C356.352 225.58 353.952 222.94 352.272 219.46C350.712 215.86 349.932 211.48 349.932 206.32V97.6C349.932 96.28 350.412 95.32 351.372 94.72C352.452 94 354.312 93.64 356.952 93.64H358.392C361.032 93.64 362.832 94 363.792 94.72C364.872 95.32 365.412 96.28 365.412 97.6V206.32C365.412 210.4 366.012 213.16 367.212 214.6C368.532 216.04 370.752 216.76 373.872 216.76C376.632 216.76 378.612 216.46 379.812 215.86C381.012 215.26 382.032 214.96 382.872 214.96C383.472 214.96 383.952 215.38 384.312 216.22C384.792 216.94 385.092 217.84 385.212 218.92C385.452 220 385.572 221.02 385.572 221.98C385.692 222.94 385.752 223.6 385.752 223.96C385.752 225.16 384.912 226.24 383.232 227.2C381.672 228.16 379.752 228.88 377.472 229.36C375.312 229.84 373.332 230.08 371.532 230.08ZM439.592 230.08C425.792 230.08 415.172 226.48 407.732 219.28C400.412 212.08 396.752 199.78 396.752 182.38C396.752 171.94 398.372 163.12 401.612 155.92C404.852 148.72 409.592 143.26 415.832 139.54C422.192 135.7 429.872 133.78 438.872 133.78C447.032 133.78 453.812 135.58 459.212 139.18C464.732 142.66 468.812 147.88 471.452 154.84C474.212 161.8 475.592 170.32 475.592 180.4C475.592 181.48 475.292 182.62 474.692 183.82C474.092 185.02 473.312 186.04 472.352 186.88C471.392 187.72 470.372 188.14 469.292 188.14H412.592C412.832 198.1 415.172 205.42 419.612 210.1C424.052 214.78 430.832 217.12 439.952 217.12C445.712 217.12 450.572 216.46 454.532 215.14C458.612 213.82 461.792 212.5 464.072 211.18C466.472 209.86 467.972 209.2 468.572 209.2C469.412 209.2 470.132 209.74 470.732 210.82C471.452 211.78 472.052 212.92 472.532 214.24C473.012 215.56 473.252 216.7 473.252 217.66C473.252 218.74 472.352 220 470.552 221.44C468.872 222.76 466.472 224.14 463.352 225.58C460.352 226.9 456.812 227.98 452.732 228.82C448.652 229.66 444.272 230.08 439.592 230.08ZM412.592 175.18H460.112C460.112 165.7 458.132 158.62 454.172 153.94C450.212 149.14 444.572 146.74 437.252 146.74C431.972 146.74 427.532 147.94 423.932 150.34C420.332 152.62 417.572 155.86 415.652 160.06C413.732 164.26 412.712 169.3 412.592 175.18ZM507.103 229.36C504.463 229.36 502.603 229 501.523 228.28C500.563 227.56 500.083 226.6 500.083 225.4V161.86C500.083 156.94 499.903 152.92 499.543 149.8C499.303 146.68 499.003 144.22 498.643 142.42C498.403 140.62 498.283 139.36 498.283 138.64C498.283 138.04 498.643 137.5 499.363 137.02C500.083 136.54 500.983 136.18 502.063 135.94C503.143 135.58 504.283 135.34 505.483 135.22C506.683 135.1 507.763 135.04 508.723 135.04C509.803 135.04 510.643 135.46 511.243 136.3C511.843 137.02 512.383 138.28 512.863 140.08C513.343 141.76 513.883 144.16 514.483 147.28C516.883 144.4 519.583 142 522.583 140.08C525.583 138.04 528.703 136.48 531.943 135.4C535.303 134.32 538.663 133.78 542.023 133.78C548.143 133.78 553.363 134.98 557.683 137.38C562.123 139.66 565.483 142.96 567.763 147.28C570.163 151.6 571.363 156.82 571.363 162.94V225.4C571.363 226.6 570.823 227.56 569.743 228.28C568.783 229 566.983 229.36 564.343 229.36H562.903C560.263 229.36 558.403 229 557.323 228.28C556.363 227.56 555.883 226.6 555.883 225.4V164.38C555.883 158.62 554.323 154.3 551.203 151.42C548.203 148.42 543.703 146.92 537.703 146.92C534.823 146.92 532.003 147.46 529.243 148.54C526.483 149.5 523.903 150.94 521.503 152.86C519.223 154.66 517.243 156.88 515.563 159.52V225.4C515.563 226.6 515.023 227.56 513.943 228.28C512.983 229 511.183 229.36 508.543 229.36H507.103ZM627.998 230.08C620.798 230.08 614.618 228.28 609.458 224.68C604.418 220.96 600.578 215.56 597.938 208.48C595.298 201.4 593.978 192.76 593.978 182.56C593.978 173.08 595.298 164.68 597.938 157.36C600.698 150.04 604.598 144.28 609.638 140.08C614.678 135.88 620.678 133.78 627.638 133.78C632.438 133.78 637.178 134.56 641.858 136.12C646.658 137.68 650.738 139.72 654.098 142.24V97.6C654.098 96.28 654.698 95.32 655.898 94.72C657.098 94 659.018 93.64 661.658 93.64H662.378C664.898 93.64 666.698 94 667.778 94.72C668.978 95.32 669.578 96.28 669.578 97.6V202C669.578 206.92 669.698 210.94 669.938 214.06C670.298 217.18 670.598 219.64 670.838 221.44C671.198 223.12 671.378 224.38 671.378 225.22C671.378 225.82 671.018 226.36 670.298 226.84C669.578 227.32 668.678 227.74 667.598 228.1C666.518 228.34 665.378 228.58 664.178 228.82C662.978 228.94 661.898 229 660.938 229C659.858 229 659.018 228.64 658.418 227.92C657.818 227.08 657.278 225.76 656.798 223.96C656.318 222.04 655.778 219.58 655.178 216.58C652.778 219.34 650.018 221.74 646.898 223.78C643.898 225.82 640.778 227.38 637.538 228.46C634.298 229.54 631.118 230.08 627.998 230.08ZM632.678 216.76C636.518 216.76 640.358 215.68 644.198 213.52C648.158 211.24 651.458 208.18 654.098 204.34V156.82C650.498 153.58 646.658 151.12 642.578 149.44C638.498 147.76 634.538 146.92 630.698 146.92C624.098 146.92 618.938 150.04 615.218 156.28C611.618 162.4 609.818 171.16 609.818 182.56C609.818 194.44 611.858 203.14 615.938 208.66C620.138 214.06 625.718 216.76 632.678 216.76ZM708.355 95.98C710.635 95.98 712.375 96.46 713.575 97.42C714.895 98.26 715.555 99.46 715.555 101.02C715.555 106.42 714.895 111.28 713.575 115.6C712.255 119.92 710.575 123.64 708.535 126.76C706.495 129.88 704.395 132.28 702.235 133.96C700.195 135.52 698.455 136.3 697.015 136.3C696.415 136.3 695.695 136.24 694.855 136.12C694.015 135.88 693.295 135.58 692.695 135.22C692.095 134.86 691.795 134.32 691.795 133.6C691.795 133 691.975 132.34 692.335 131.62C692.695 130.78 693.055 130 693.415 129.28C694.735 126.64 695.815 123.94 696.655 121.18C697.615 118.3 698.335 115.3 698.815 112.18C699.295 108.94 699.535 105.46 699.535 101.74C699.535 100.06 700.135 98.68 701.335 97.6C702.535 96.52 704.335 95.98 706.735 95.98H708.355Z" fill="#23B3ED"/>
<path d="M746.86 229.36C742.42 229.36 739.18 228.76 737.14 227.56C735.1 226.36 734.08 224.68 734.08 222.52V109.48C734.08 107.32 735.1 105.64 737.14 104.44C739.18 103.24 742.42 102.64 746.86 102.64H752.26C756.7 102.64 759.94 103.24 761.98 104.44C764.02 105.64 765.04 107.32 765.04 109.48V222.52C765.04 224.68 764.02 226.36 761.98 227.56C759.94 228.76 756.7 229.36 752.26 229.36H746.86ZM798.017 229.36C793.577 229.36 790.337 228.76 788.297 227.56C786.257 226.36 785.237 224.68 785.237 222.52V109.48C785.237 107.2 786.257 105.52 788.297 104.44C790.337 103.24 793.577 102.64 798.017 102.64H803.057C805.817 102.64 808.037 102.82 809.717 103.18C811.517 103.54 813.077 104.2 814.397 105.16C815.717 106 817.037 107.44 818.357 109.48L855.257 162.04C857.297 164.8 859.277 167.86 861.197 171.22C863.117 174.46 864.617 177.16 865.697 179.32L866.417 179.14C866.057 176.86 865.757 174.04 865.517 170.68C865.397 167.32 865.337 164.02 865.337 160.78V109.48C865.337 107.32 866.357 105.64 868.397 104.44C870.437 103.24 873.677 102.64 878.117 102.64H881.357C885.917 102.64 889.157 103.24 891.077 104.44C893.117 105.64 894.137 107.32 894.137 109.48V222.52C894.137 224.68 893.117 226.36 891.077 227.56C889.157 228.76 885.917 229.36 881.357 229.36H876.317C873.797 229.36 871.637 229.24 869.837 229C868.157 228.64 866.657 228.04 865.337 227.2C864.137 226.24 862.937 224.86 861.737 223.06L824.117 169.78C822.077 166.78 820.097 163.66 818.177 160.42C816.257 157.18 814.757 154.48 813.677 152.32L812.957 152.5C813.317 154.78 813.557 157.6 813.677 160.96C813.917 164.32 814.037 167.68 814.037 171.04V222.52C814.037 224.68 813.017 226.36 810.977 227.56C809.057 228.76 805.817 229.36 801.257 229.36H798.017ZM951.152 229.36C946.712 229.36 943.472 228.76 941.432 227.56C939.392 226.36 938.372 224.68 938.372 222.52V130.54H912.092C907.892 130.54 905.792 127.18 905.792 120.46V112.9C905.792 106.3 907.892 103 912.092 103H995.432C999.632 103 1001.73 106.3 1001.73 112.9V120.46C1001.73 127.18 999.632 130.54 995.432 130.54H969.152V222.52C969.152 224.68 968.132 226.36 966.092 227.56C964.172 228.76 960.932 229.36 956.372 229.36H951.152Z" fill="#2566EB"/>
</g>
<defs>
<linearGradient id="paint0_linear_15_2" x1="72" y1="104" x2="72" y2="133" gradientUnits="userSpaceOnUse">
<stop stop-opacity="0"/>
<stop offset="1"/>
</linearGradient>
<linearGradient id="paint1_linear_15_2" x1="178.5" y1="196" x2="140" y2="196" gradientUnits="userSpaceOnUse">
<stop stop-opacity="0"/>
<stop offset="1"/>
</linearGradient>
<linearGradient id="paint2_linear_15_2" x1="124.5" y1="149.5" x2="92" y2="182" gradientUnits="userSpaceOnUse">
<stop stop-opacity="0"/>
<stop offset="1"/>
</linearGradient>
<linearGradient id="paint3_linear_15_2" x1="93.5" y1="25" x2="93.5" y2="68" gradientUnits="userSpaceOnUse">
<stop/>
<stop offset="1" stop-opacity="0"/>
</linearGradient>
<linearGradient id="paint4_linear_15_2" x1="132.5" y1="25" x2="132.5" y2="68" gradientUnits="userSpaceOnUse">
<stop/>
<stop offset="1" stop-opacity="0"/>
</linearGradient>
<linearGradient id="paint5_linear_15_2" x1="171.5" y1="25" x2="171.5" y2="68" gradientUnits="userSpaceOnUse">
<stop/>
<stop offset="1" stop-opacity="0"/>
</linearGradient>
<clipPath id="clip0_15_2">
<rect width="1047" height="262" fill="white"/>
</clipPath>
</defs>
</svg>
