<svg width="262" height="262" viewBox="0 0 262 262" fill="none" xmlns="http://www.w3.org/2000/svg">
<path fill-rule="evenodd" clip-rule="evenodd" d="M40 112V47C40 35.9543 48.9543 27 60 27H81V13.5C81 8.25329 85.2533 4 90.5 4C95.7467 4 100 8.25329 100 13.5V37.5C100 42.7467 95.7467 47 90.5 47C89.2001 47 87.9614 46.7382 86.833 46.2656C88.5481 47.9559 90.9017 49 93.5 49C98.7467 49 103 44.7467 103 39.5V27H120V13.5C120 8.25329 124.253 4 129.5 4C134.747 4 139 8.25329 139 13.5V37.5C139 42.7467 134.747 47 129.5 47C128.2 47 126.961 46.7382 125.833 46.2656C127.548 47.9559 129.902 49 132.5 49C137.747 49 142 44.7467 142 39.5V27H159V13.5C159 8.25329 163.253 4 168.5 4C173.747 4 178 8.25329 178 13.5V37.5C178 42.7467 173.747 47 168.5 47C167.2 47 165.961 46.7382 164.833 46.2656C166.548 47.9559 168.902 49 171.5 49C176.747 49 181 44.7467 181 39.5V27H202C213.046 27 222 35.9543 222 47V90C222 92.7614 219.761 95 217 95H181C178.239 95 176 92.7614 176 90V78C176 75.2386 173.761 73 171 73H91C88.2386 73 86 75.2386 86 78V112H40Z" fill="#23B3ED"/>
<path fill-rule="evenodd" clip-rule="evenodd" d="M40 112V47C40 35.9543 48.9543 27 60 27H81V13.5C81 8.25329 85.2533 4 90.5 4C95.7467 4 100 8.25329 100 13.5V37.5C100 42.7467 95.7467 47 90.5 47C89.2001 47 87.9614 46.7382 86.833 46.2656C88.5481 47.9559 90.9017 49 93.5 49C98.7467 49 103 44.7467 103 39.5V27H120V13.5C120 8.25329 124.253 4 129.5 4C134.747 4 139 8.25329 139 13.5V37.5C139 42.7467 134.747 47 129.5 47C128.2 47 126.961 46.7382 125.833 46.2656C127.548 47.9559 129.902 49 132.5 49C137.747 49 142 44.7467 142 39.5V27H159V13.5C159 8.25329 163.253 4 168.5 4C173.747 4 178 8.25329 178 13.5V37.5C178 42.7467 173.747 47 168.5 47C167.2 47 165.961 46.7382 164.833 46.2656C166.548 47.9559 168.902 49 171.5 49C176.747 49 181 44.7467 181 39.5V27H202C213.046 27 222 35.9543 222 47V90C222 92.7614 219.761 95 217 95H181C178.239 95 176 92.7614 176 90V78C176 75.2386 173.761 73 171 73H91C88.2386 73 86 75.2386 86 78V112H40Z" fill="url(#paint0_linear_6_125)" fill-opacity="0.1"/>
<path d="M202 209H137V163H171C173.761 163 176 160.761 176 158V146C176 143.239 178.239 141 181 141H217C219.761 141 222 143.239 222 146V189C222 200.046 213.046 209 202 209Z" fill="#23B3ED"/>
<path d="M202 209H137V163H171C173.761 163 176 160.761 176 158V146C176 143.239 178.239 141 181 141H217C219.761 141 222 143.239 222 146V189C222 200.046 213.046 209 202 209Z" fill="url(#paint1_linear_6_125)" fill-opacity="0.1"/>
<rect width="97" height="40" transform="matrix(1 0 0 -1 81 44)" fill="url(#paint2_linear_6_125)" fill-opacity="0.1"/>
<path d="M40 112H119C128.941 112 137 120.059 137 130V209L40 112Z" fill="#2566EB"/>
<path d="M40 112H119C128.941 112 137 120.059 137 130V209L40 112Z" fill="url(#paint3_linear_6_125)" fill-opacity="0.2"/>
<rect x="81" y="4" width="19" height="43" rx="9.5" fill="#23B3ED"/>
<rect x="81" y="4" width="19" height="43" rx="9.5" fill="url(#paint4_linear_6_125)" fill-opacity="0.1"/>
<rect x="120" y="4" width="19" height="43" rx="9.5" fill="#23B3ED"/>
<rect x="120" y="4" width="19" height="43" rx="9.5" fill="url(#paint5_linear_6_125)" fill-opacity="0.1"/>
<rect x="159" y="4" width="19" height="43" rx="9.5" fill="#23B3ED"/>
<rect x="159" y="4" width="19" height="43" rx="9.5" fill="url(#paint6_linear_6_125)" fill-opacity="0.1"/>
<path d="M55.0269 243.222C50.9816 243.222 47.9846 242.161 46.0359 240.04C44.0872 237.894 43.1129 234.564 43.1129 230.05C43.1129 225.635 44.1242 222.342 46.1469 220.171C48.1696 217.976 51.1542 216.878 55.1009 216.878C55.9396 216.878 56.7536 216.94 57.5429 217.063C58.3322 217.186 59.0476 217.347 59.6889 217.544C60.3302 217.741 60.8606 217.963 61.2799 218.21C61.5512 218.383 61.7609 218.555 61.9089 218.728C62.0816 218.876 62.1679 219.024 62.1679 219.172C62.1679 219.32 62.1309 219.505 62.0569 219.727C62.0076 219.924 61.9212 220.134 61.7979 220.356C61.6992 220.553 61.5759 220.726 61.4279 220.874C61.3046 220.997 61.1689 221.059 61.0209 221.059C60.8236 221.059 60.4782 220.948 59.9849 220.726C59.5162 220.479 58.8872 220.245 58.0979 220.023C57.3086 219.801 56.3342 219.69 55.1749 219.69C53.2016 219.69 51.5736 220.048 50.2909 220.763C49.0082 221.478 48.0462 222.601 47.4049 224.13C46.7882 225.659 46.4799 227.645 46.4799 230.087C46.4799 232.455 46.7882 234.404 47.4049 235.933C48.0216 237.438 48.9589 238.56 50.2169 239.3C51.4996 240.04 53.1029 240.41 55.0269 240.41C55.9889 240.41 56.8399 240.324 57.5799 240.151C58.3446 239.978 58.9982 239.793 59.5409 239.596C60.1082 239.374 60.5646 239.177 60.9099 239.004C61.2552 238.831 61.4896 238.745 61.6129 238.745C61.7609 238.745 61.8966 238.819 62.0199 238.967C62.1679 239.115 62.2912 239.288 62.3899 239.485C62.4886 239.682 62.5626 239.88 62.6119 240.077C62.6612 240.274 62.6859 240.422 62.6859 240.521C62.6859 240.743 62.5749 240.965 62.3529 241.187C62.1556 241.384 61.8719 241.582 61.5019 241.779C61.0579 242.026 60.5029 242.26 59.8369 242.482C59.1956 242.704 58.4679 242.877 57.6539 243C56.8399 243.148 55.9642 243.222 55.0269 243.222ZM72.0521 243.222C70.2514 243.222 68.7468 242.778 67.5381 241.89C66.3294 240.977 65.7251 239.571 65.7251 237.672C65.7251 236.414 65.9348 235.353 66.3541 234.49C66.7734 233.627 67.4518 232.936 68.3891 232.418C69.3511 231.9 70.6091 231.53 72.1631 231.308C73.7418 231.061 75.6658 230.938 77.9351 230.938V229.199C77.9351 228.632 77.8118 228.114 77.5651 227.645C77.3184 227.176 76.8991 226.806 76.3071 226.535C75.7398 226.239 74.9504 226.091 73.9391 226.091C72.8291 226.091 71.8424 226.214 70.9791 226.461C70.1404 226.708 69.4498 226.954 68.9071 227.201C68.3891 227.448 68.0438 227.571 67.8711 227.571C67.7478 227.571 67.6244 227.509 67.5011 227.386C67.4024 227.263 67.3038 227.102 67.2051 226.905C67.1064 226.683 67.0201 226.461 66.9461 226.239C66.8968 226.017 66.8721 225.82 66.8721 225.647C66.8721 225.45 67.0818 225.228 67.5011 224.981C67.9204 224.734 68.4754 224.5 69.1661 224.278C69.8814 224.031 70.6584 223.834 71.4971 223.686C72.3604 223.513 73.2238 223.427 74.0871 223.427C75.1971 223.427 76.1838 223.563 77.0471 223.834C77.9351 224.081 78.6751 224.463 79.2671 224.981C79.8591 225.474 80.3154 226.079 80.6361 226.794C80.9568 227.509 81.1171 228.323 81.1171 229.236V237.45C81.1171 238.461 81.1418 239.288 81.1911 239.929C81.2651 240.57 81.3268 241.076 81.3761 241.446C81.4501 241.791 81.4871 242.05 81.4871 242.223C81.4871 242.346 81.4131 242.457 81.2651 242.556C81.1171 242.655 80.9321 242.741 80.7101 242.815C80.4881 242.864 80.2538 242.914 80.0071 242.963C79.7604 242.988 79.5384 243 79.3411 243C79.1191 243 78.9464 242.926 78.8231 242.778C78.6998 242.605 78.5888 242.334 78.4901 241.964C78.3914 241.569 78.2804 241.064 78.1571 240.447C77.7131 240.965 77.1828 241.434 76.5661 241.853C75.9741 242.272 75.2958 242.605 74.5311 242.852C73.7911 243.099 72.9648 243.222 72.0521 243.222ZM72.2001 240.521C73.0881 240.521 73.8651 240.398 74.5311 240.151C75.2218 239.904 75.8384 239.596 76.3811 239.226C76.9484 238.831 77.4664 238.412 77.9351 237.968V233.602C76.1098 233.602 74.6174 233.676 73.4581 233.824C72.2988 233.947 71.3984 234.157 70.7571 234.453C70.1158 234.749 69.6718 235.156 69.4251 235.674C69.1784 236.167 69.0551 236.772 69.0551 237.487C69.0551 238.474 69.3141 239.226 69.8321 239.744C70.3748 240.262 71.1641 240.521 72.2001 240.521ZM91.5482 243.222C90.5616 243.222 89.7352 243.037 89.0692 242.667C88.4279 242.297 87.9346 241.754 87.5892 241.039C87.2686 240.299 87.1082 239.399 87.1082 238.338V215.99C87.1082 215.719 87.2069 215.521 87.4042 215.398C87.6262 215.25 88.0086 215.176 88.5512 215.176H88.8472C89.3899 215.176 89.7599 215.25 89.9572 215.398C90.1792 215.521 90.2902 215.719 90.2902 215.99V238.338C90.2902 239.177 90.4136 239.744 90.6602 240.04C90.9316 240.336 91.3879 240.484 92.0292 240.484C92.5966 240.484 93.0036 240.422 93.2502 240.299C93.4969 240.176 93.7066 240.114 93.8792 240.114C94.0026 240.114 94.1012 240.2 94.1752 240.373C94.2739 240.521 94.3356 240.706 94.3602 240.928C94.4096 241.15 94.4342 241.36 94.4342 241.557C94.4589 241.754 94.4712 241.89 94.4712 241.964C94.4712 242.211 94.2986 242.433 93.9532 242.63C93.6326 242.827 93.2379 242.975 92.7692 243.074C92.3252 243.173 91.9182 243.222 91.5482 243.222ZM105.538 243.222C102.702 243.222 100.519 242.482 98.9893 241.002C97.4846 239.522 96.7323 236.994 96.7323 233.417C96.7323 231.271 97.0653 229.458 97.7313 227.978C98.3973 226.498 99.3716 225.376 100.654 224.611C101.962 223.822 103.54 223.427 105.39 223.427C107.068 223.427 108.461 223.797 109.571 224.537C110.706 225.252 111.545 226.325 112.087 227.756C112.655 229.187 112.938 230.938 112.938 233.01C112.938 233.232 112.877 233.466 112.753 233.713C112.63 233.96 112.47 234.169 112.272 234.342C112.075 234.515 111.865 234.601 111.643 234.601H99.9883C100.038 236.648 100.519 238.153 101.431 239.115C102.344 240.077 103.738 240.558 105.612 240.558C106.796 240.558 107.795 240.422 108.609 240.151C109.448 239.88 110.102 239.608 110.57 239.337C111.064 239.066 111.372 238.93 111.495 238.93C111.668 238.93 111.816 239.041 111.939 239.263C112.087 239.46 112.211 239.695 112.309 239.966C112.408 240.237 112.457 240.472 112.457 240.669C112.457 240.891 112.272 241.15 111.902 241.446C111.557 241.717 111.064 242.001 110.422 242.297C109.806 242.568 109.078 242.79 108.239 242.963C107.401 243.136 106.5 243.222 105.538 243.222ZM99.9883 231.937H109.756C109.756 229.988 109.349 228.533 108.535 227.571C107.721 226.584 106.562 226.091 105.057 226.091C103.972 226.091 103.059 226.338 102.319 226.831C101.579 227.3 101.012 227.966 100.617 228.829C100.223 229.692 100.013 230.728 99.9883 231.937ZM119.416 243.074C118.873 243.074 118.491 243 118.269 242.852C118.071 242.704 117.973 242.507 117.973 242.26V229.199C117.973 228.188 117.936 227.361 117.862 226.72C117.812 226.079 117.751 225.573 117.677 225.203C117.627 224.833 117.603 224.574 117.603 224.426C117.603 224.303 117.677 224.192 117.825 224.093C117.973 223.994 118.158 223.92 118.38 223.871C118.602 223.797 118.836 223.748 119.083 223.723C119.329 223.698 119.551 223.686 119.749 223.686C119.971 223.686 120.143 223.772 120.267 223.945C120.39 224.093 120.501 224.352 120.6 224.722C120.698 225.067 120.809 225.561 120.933 226.202C121.426 225.61 121.981 225.117 122.598 224.722C123.214 224.303 123.856 223.982 124.522 223.76C125.212 223.538 125.903 223.427 126.594 223.427C127.852 223.427 128.925 223.674 129.813 224.167C130.725 224.636 131.416 225.314 131.885 226.202C132.378 227.09 132.625 228.163 132.625 229.421V242.26C132.625 242.507 132.514 242.704 132.292 242.852C132.094 243 131.724 243.074 131.182 243.074H130.886C130.343 243.074 129.961 243 129.739 242.852C129.541 242.704 129.443 242.507 129.443 242.26V229.717C129.443 228.533 129.122 227.645 128.481 227.053C127.864 226.436 126.939 226.128 125.706 226.128C125.114 226.128 124.534 226.239 123.967 226.461C123.399 226.658 122.869 226.954 122.376 227.349C121.907 227.719 121.5 228.175 121.155 228.718V242.26C121.155 242.507 121.044 242.704 120.822 242.852C120.624 243 120.254 243.074 119.712 243.074H119.416ZM144.266 243.222C142.786 243.222 141.516 242.852 140.455 242.112C139.419 241.347 138.63 240.237 138.087 238.782C137.545 237.327 137.273 235.551 137.273 233.454C137.273 231.505 137.545 229.779 138.087 228.274C138.655 226.769 139.456 225.585 140.492 224.722C141.528 223.859 142.762 223.427 144.192 223.427C145.179 223.427 146.153 223.587 147.115 223.908C148.102 224.229 148.941 224.648 149.631 225.166V215.99C149.631 215.719 149.755 215.521 150.001 215.398C150.248 215.25 150.643 215.176 151.185 215.176H151.333C151.851 215.176 152.221 215.25 152.443 215.398C152.69 215.521 152.813 215.719 152.813 215.99V237.45C152.813 238.461 152.838 239.288 152.887 239.929C152.961 240.57 153.023 241.076 153.072 241.446C153.146 241.791 153.183 242.05 153.183 242.223C153.183 242.346 153.109 242.457 152.961 242.556C152.813 242.655 152.628 242.741 152.406 242.815C152.184 242.864 151.95 242.914 151.703 242.963C151.457 242.988 151.235 243 151.037 243C150.815 243 150.643 242.926 150.519 242.778C150.396 242.605 150.285 242.334 150.186 241.964C150.088 241.569 149.977 241.064 149.853 240.447C149.36 241.014 148.793 241.508 148.151 241.927C147.535 242.346 146.893 242.667 146.227 242.889C145.561 243.111 144.908 243.222 144.266 243.222ZM145.228 240.484C146.018 240.484 146.807 240.262 147.596 239.818C148.41 239.349 149.089 238.72 149.631 237.931V228.163C148.891 227.497 148.102 226.991 147.263 226.646C146.425 226.301 145.611 226.128 144.821 226.128C143.465 226.128 142.404 226.769 141.639 228.052C140.899 229.31 140.529 231.111 140.529 233.454C140.529 235.896 140.949 237.684 141.787 238.819C142.651 239.929 143.798 240.484 145.228 240.484ZM160.784 215.657C161.253 215.657 161.611 215.756 161.857 215.953C162.129 216.126 162.264 216.372 162.264 216.693C162.264 217.803 162.129 218.802 161.857 219.69C161.586 220.578 161.241 221.343 160.821 221.984C160.402 222.625 159.97 223.119 159.526 223.464C159.107 223.785 158.749 223.945 158.453 223.945C158.33 223.945 158.182 223.933 158.009 223.908C157.837 223.859 157.689 223.797 157.565 223.723C157.442 223.649 157.38 223.538 157.38 223.39C157.38 223.267 157.417 223.131 157.491 222.983C157.565 222.81 157.639 222.65 157.713 222.502C157.985 221.959 158.207 221.404 158.379 220.837C158.577 220.245 158.725 219.628 158.823 218.987C158.922 218.321 158.971 217.606 158.971 216.841C158.971 216.496 159.095 216.212 159.341 215.99C159.588 215.768 159.958 215.657 160.451 215.657H160.784Z" fill="#23B3ED"/>
<path d="M168.699 243.074C167.786 243.074 167.12 242.951 166.701 242.704C166.282 242.457 166.072 242.112 166.072 241.668V218.432C166.072 217.988 166.282 217.643 166.701 217.396C167.12 217.149 167.786 217.026 168.699 217.026H169.809C170.722 217.026 171.388 217.149 171.807 217.396C172.226 217.643 172.436 217.988 172.436 218.432V241.668C172.436 242.112 172.226 242.457 171.807 242.704C171.388 242.951 170.722 243.074 169.809 243.074H168.699ZM179.215 243.074C178.302 243.074 177.636 242.951 177.217 242.704C176.797 242.457 176.588 242.112 176.588 241.668V218.432C176.588 217.963 176.797 217.618 177.217 217.396C177.636 217.149 178.302 217.026 179.215 217.026H180.251C180.818 217.026 181.274 217.063 181.62 217.137C181.99 217.211 182.31 217.347 182.582 217.544C182.853 217.717 183.124 218.013 183.396 218.432L190.981 229.236C191.4 229.803 191.807 230.432 192.202 231.123C192.596 231.789 192.905 232.344 193.127 232.788L193.275 232.751C193.201 232.282 193.139 231.703 193.09 231.012C193.065 230.321 193.053 229.643 193.053 228.977V218.432C193.053 217.988 193.262 217.643 193.682 217.396C194.101 217.149 194.767 217.026 195.68 217.026H196.346C197.283 217.026 197.949 217.149 198.344 217.396C198.763 217.643 198.973 217.988 198.973 218.432V241.668C198.973 242.112 198.763 242.457 198.344 242.704C197.949 242.951 197.283 243.074 196.346 243.074H195.31C194.792 243.074 194.348 243.049 193.978 243C193.632 242.926 193.324 242.803 193.053 242.63C192.806 242.433 192.559 242.149 192.313 241.779L184.58 230.827C184.16 230.21 183.753 229.569 183.359 228.903C182.964 228.237 182.656 227.682 182.434 227.238L182.286 227.275C182.36 227.744 182.409 228.323 182.434 229.014C182.483 229.705 182.508 230.395 182.508 231.086V241.668C182.508 242.112 182.298 242.457 181.879 242.704C181.484 242.951 180.818 243.074 179.881 243.074H179.215ZM210.692 243.074C209.78 243.074 209.114 242.951 208.694 242.704C208.275 242.457 208.065 242.112 208.065 241.668V222.761H202.663C201.8 222.761 201.368 222.07 201.368 220.689V219.135C201.368 217.778 201.8 217.1 202.663 217.1H219.794C220.658 217.1 221.089 217.778 221.089 219.135V220.689C221.089 222.07 220.658 222.761 219.794 222.761H214.392V241.668C214.392 242.112 214.183 242.457 213.763 242.704C213.369 242.951 212.703 243.074 211.765 243.074H210.692Z" fill="#2566EB"/>
<defs>
<linearGradient id="paint0_linear_6_125" x1="69" y1="83" x2="69" y2="112" gradientUnits="userSpaceOnUse">
<stop stop-opacity="0"/>
<stop offset="1"/>
</linearGradient>
<linearGradient id="paint1_linear_6_125" x1="175.5" y1="175" x2="137" y2="175" gradientUnits="userSpaceOnUse">
<stop stop-opacity="0"/>
<stop offset="1"/>
</linearGradient>
<linearGradient id="paint2_linear_6_125" x1="48.5" y1="0" x2="48.5" y2="40" gradientUnits="userSpaceOnUse">
<stop stop-opacity="0"/>
<stop offset="1"/>
</linearGradient>
<linearGradient id="paint3_linear_6_125" x1="121.5" y1="128.5" x2="89" y2="161" gradientUnits="userSpaceOnUse">
<stop stop-opacity="0"/>
<stop offset="1"/>
</linearGradient>
<linearGradient id="paint4_linear_6_125" x1="90.5" y1="4" x2="90.5" y2="47" gradientUnits="userSpaceOnUse">
<stop/>
<stop offset="1" stop-opacity="0"/>
</linearGradient>
<linearGradient id="paint5_linear_6_125" x1="129.5" y1="4" x2="129.5" y2="47" gradientUnits="userSpaceOnUse">
<stop/>
<stop offset="1" stop-opacity="0"/>
</linearGradient>
<linearGradient id="paint6_linear_6_125" x1="168.5" y1="4" x2="168.5" y2="47" gradientUnits="userSpaceOnUse">
<stop/>
<stop offset="1" stop-opacity="0"/>
</linearGradient>
</defs>
</svg>
