<svg width="280" height="280" viewBox="0 0 280 280" fill="none" xmlns="http://www.w3.org/2000/svg">
<path d="M157.54 111.499C161.501 111.499 165.224 112.211 168.63 113.716C172.036 115.221 175.046 117.202 177.66 119.816C180.274 122.43 182.333 125.361 183.838 128.846C185.343 132.252 186.056 135.975 186.056 139.936V168.452H174.808V139.936C174.808 137.559 174.333 135.341 173.462 133.282C172.59 131.222 171.323 129.4 169.818 127.816C168.234 126.232 166.412 125.044 164.273 124.172C162.134 123.301 159.916 122.826 157.54 122.826C155.164 122.826 152.946 123.301 150.886 124.172C148.827 125.044 147.005 126.311 145.421 127.816C143.836 129.4 142.648 131.222 141.777 133.282C140.906 135.341 140.43 137.559 140.43 139.936V168.452H129.103V139.936C129.103 137.559 128.628 135.341 127.756 133.282C126.885 131.222 125.618 129.4 124.113 127.816C122.528 126.232 120.707 125.044 118.568 124.172C116.429 123.301 114.211 122.826 111.835 122.826C109.459 122.826 107.241 123.301 105.181 124.172C103.122 125.044 101.3 126.311 99.7155 127.816C98.1312 129.4 96.9431 131.222 96.0717 133.282C95.2004 135.341 94.7251 137.559 94.7251 139.936V168.452H83.4771V139.936C83.4771 135.975 84.19 132.252 85.695 128.846C87.2 125.44 89.1803 122.43 91.7943 119.816C94.4083 117.202 97.4183 115.221 100.824 113.716C104.31 112.211 107.954 111.499 111.835 111.499C116.588 111.499 120.865 112.528 124.826 114.588C128.786 116.647 132.034 119.499 134.648 122.984C137.262 119.42 140.589 116.647 144.549 114.588C148.589 112.528 152.867 111.499 157.54 111.499Z" fill="white"/>
<mask id="mask0_208_30" style="mask-type:alpha" maskUnits="userSpaceOnUse" x="41" y="41" width="199" height="199">
<path d="M200.473 164.887V135.104H194.532C193.661 135.104 193.027 134.47 193.027 133.599V128.371C193.027 127.499 193.661 126.866 194.532 126.866H205.542C207.602 126.866 209.186 128.45 209.186 130.509V160.293H215.127C215.998 160.293 216.632 160.927 216.632 161.798V167.026C216.632 167.897 215.998 168.531 215.127 168.531H204.117C202.057 168.531 200.473 166.947 200.473 164.887Z" fill="url(#paint0_linear_208_30)"/>
<path d="M231.267 128.054C231.95 132.781 232.138 136.133 232.138 140.252C232.138 186.987 194.275 224.851 147.54 224.851C100.805 224.851 62.9417 186.987 62.9417 140.252C62.9417 93.5175 100.805 55.6542 147.54 55.6542C184.373 55.6542 214.98 77.2641 227.306 111.974C228.853 118.253 230.342 121.653 231.267 128.054ZM234.752 109.756C220.812 66.2983 184.453 41 140.252 41C85.4378 41 41 85.4379 41 140.252C41 195.067 85.4378 239.505 140.252 239.505C195.067 239.505 239.505 195.067 239.505 140.252C239.505 135.183 239.147 129.374 238.396 124.361C236.973 118.267 236.664 115.715 234.752 109.756Z" fill="url(#paint1_linear_208_30)"/>
<path d="M205.622 111.657C205.622 111.261 205.859 110.073 204.909 108.726C204.038 107.538 202.77 107.221 201.424 107.221C201.344 107.221 201.344 107.221 201.265 107.221C201.186 107.221 201.107 107.221 201.107 107.221C199.839 107.221 198.493 107.538 197.621 108.726C196.671 110.073 196.909 111.261 196.909 111.657C196.909 112.053 193.978 116.964 194.374 117.677C194.611 118.073 195.562 117.439 195.562 117.994C195.562 118.548 194.611 124.093 201.186 124.093C201.186 124.093 201.186 124.093 201.265 124.093C201.265 124.093 201.265 124.093 201.344 124.093C207.919 124.093 206.968 118.548 206.968 117.994C206.968 117.439 207.919 118.073 208.157 117.677C208.473 116.964 205.622 112.053 205.622 111.657ZM203.404 110.152C203.721 110.152 204.038 110.469 204.038 110.786C204.038 111.103 203.721 111.419 203.404 111.419C203.087 111.419 202.77 111.103 202.77 110.786C202.77 110.469 203.008 110.152 203.404 110.152ZM199.126 110.152C199.443 110.152 199.76 110.469 199.76 110.786C199.76 111.103 199.443 111.419 199.126 111.419C198.81 111.419 198.493 111.103 198.493 110.786C198.493 110.469 198.73 110.152 199.126 110.152ZM204.988 121.558C204.671 122.113 203.879 122.984 201.424 123.064C201.344 123.064 201.344 123.064 201.265 123.064C201.186 123.064 201.186 123.064 201.107 123.064C198.651 123.064 197.938 122.113 197.542 121.558C196.512 119.816 197.463 116.885 198.255 114.905C198.572 114.113 197.938 113.083 198.651 113.004H198.73C199.364 113.004 200.631 113.954 201.186 114.113C201.265 114.113 201.265 114.113 201.344 114.113C201.424 114.113 201.424 114.113 201.503 114.113C202.057 113.954 203.404 112.924 203.958 113.004C204.671 113.083 204.038 114.113 204.354 114.905C204.988 116.885 206.018 119.816 204.988 121.558Z" fill="#71CFF1"/>
</mask>
<g mask="url(#mask0_208_30)">
<path d="M40.6831 35.2175H239.505V239.584H40.6831V35.2175Z" fill="url(#paint2_linear_208_30)"/>
</g>
<defs>
<linearGradient id="paint0_linear_208_30" x1="205.012" y1="168.331" x2="204.629" y2="126.913" gradientUnits="userSpaceOnUse">
<stop stop-color="#6FA3E8"/>
<stop offset="1" stop-color="#71CFF1"/>
</linearGradient>
<linearGradient id="paint1_linear_208_30" x1="40.9152" y1="140.225" x2="239.473" y2="140.225" gradientUnits="userSpaceOnUse">
<stop stop-color="#6FA3E8"/>
<stop offset="1" stop-color="#71CFF1"/>
</linearGradient>
<linearGradient id="paint2_linear_208_30" x1="59.2979" y1="203.939" x2="226.831" y2="82.7446" gradientUnits="userSpaceOnUse">
<stop stop-color="#6FA3E8"/>
<stop offset="1" stop-color="#71CFF1"/>
</linearGradient>
</defs>
</svg>
